{"title":"2010 Le Mans 24h - Eurosport &amp; Eurosport2 - HUN","uid":5627043,"size":9646241792,"categoryP":"video","categoryS":"tv_shows","magnet":"?xt=urn:btih:166e7678e84de5771004698c5ef979c3747b9741&amp;dn=2010+Le+Mans+24h+-+Eurosport+%26+Eurosport2+-+HUN&amp;tr=udp%3A%2F%2Ftracker.openbittorrent.com%3A80&amp;tr=udp%3A%2F%2Fopen.demonii.com%3A1337&amp;tr=udp%3A%2F%2Ftracker.coppersurfer.tk%3A6969&amp;tr=udp%3A%2F%2Fexodus.desync.com%3A6969","seeders":0,"leechers":1,"uploader":"Snookerfan_from_hungary","files":-1,"time":1276521970,"description":"Part 1:\n\n   General\n      Format : AVI\n      Format/Info : Audio Video Interleave\n      Format profile : OpenDML\n      File size : 3.03 GiB\n      Duration : 7h 27mn\n      Overall bit rate : 970 Kbps\n      Writing application : Nandub v1.0rc2\n      Writing library : Nandub build 1853/release\n   Video\n      Format : MPEG-4 Visual\n      Format settings, BVOP : No\n      Format settings, QPel : No\n      Format settings, GMC : No warppoints\n      Format settings, Matrix : Default\n      Codec ID : DX50\n      Codec ID/Hint : DivX 5\n      Duration : 7h 27mn\n      Bit rate : 768 Kbps\n      Width : 352 pixels\n      Height : 288 pixels\n      Display aspect ratio : 1.222\n      Frame rate : 25.000 fps\n      Resolution : 24 bits\n      Colorimetry : 4:2:0\n      Scan type : Progressive\n      Bits/(Pixel*Frame) : 0.303\n      Stream size : 2.40 GiB (79%)\n      Writing library : DivX 1586\n   Audio\n      Format : MPEG Audio\n      Format version : Version 1\n      Format profile : Layer 2\n      Codec ID : 50\n      Codec ID/Hint : MP1\n      Bit rate mode : Constant\n      Bit rate : 192 Kbps\n      Channel(s) : 2 channels\n      Sampling rate : 44.1 KHz\n      Resolution : 16 bits\n      Video delay : 7ms\n      Stream size : 614 MiB (20%)\n      Alignment : Split accross interleaves\n      Interleave, duration : 40 ms (1.00 video frame)\n      Interleave, preload duration : 500 ms &lt;a href=&quot;\nhttp://img210.imageshack.us/img210/9503/part1000869130421.jpg&quot; rel=&quot;nofollow&quot; target=&quot;_NEW&quot;&gt;\nhttp://img210.imageshack.us/img210/9503/part1000869130421.jpg&lt;/a&gt;\n\n\n\nPart 2:\n\n   General\n      Format : AVI\n      Format/Info : Audio Video Interleave\n      Format profile : OpenDML\n      File size : 3.04 GiB\n      Duration : 7h 28mn\n      Overall bit rate : 971 Kbps\n      Writing application : Nandub v1.0rc2\n      Writing library : Nandub build 1853/release\n   Video\n      Format : MPEG-4 Visual\n      Format settings, BVOP : No\n      Format settings, QPel : No\n      Format settings, GMC : No warppoints\n      Format settings, Matrix : Default\n      Codec ID : DX50\n      Codec ID/Hint : DivX 5\n      Duration : 7h 28mn\n      Bit rate : 768 Kbps\n      Width : 352 pixels\n      Height : 288 pixels\n      Display aspect ratio : 1.222\n      Frame rate : 25.000 fps\n      Resolution : 24 bits\n      Colorimetry : 4:2:0\n      Scan type : Progressive\n      Bits/(Pixel*Frame) : 0.303\n      Stream size : 2.40 GiB (79%)\n      Writing library : DivX 1586\n   Audio\n      Format : MPEG Audio\n      Format version : Version 1\n      Format profile : Layer 2\n      Codec ID : 50\n      Codec ID/Hint : MP1\n      Bit rate mode : Constant\n      Bit rate : 192 Kbps\n      Channel(s) : 2 channels\n      Sampling rate : 44.1 KHz\n      Resolution : 16 bits\n      Video delay : 2ms\n      Stream size : 615 MiB (20%)\n      Alignment : Split accross interleaves\n      Interleave, duration : 40 ms (1.00 video frame)\n      Interleave, preload duration : 500 ms &lt;a href=&quot;\nhttp://img63.imageshack.us/img63/904/part2103317130610.jpg&quot; rel=&quot;nofollow&quot; target=&quot;_NEW&quot;&gt;\nhttp://img63.imageshack.us/img63/904/part2103317130610.jpg&lt;/a&gt;\n\n\n\nPart 3:\n\n   General\n      Format : AVI\n      Format/Info : Audio Video Interleave\n      Format profile : OpenDML\n      File size : 2.92 GiB\n      Duration : 7h 10mn\n      Overall bit rate : 971 Kbps\n      Writing application : Nandub v1.0rc2\n      Writing library : Nandub build 1853/release\n   Video\n      Format : MPEG-4 Visual\n      Format settings, BVOP : No\n      Format settings, QPel : No\n      Format settings, GMC : No warppoints\n      Format settings, Matrix : Default\n      Codec ID : DX50\n      Codec ID/Hint : DivX 5\n      Duration : 7h 10mn\n      Bit rate : 768 Kbps\n      Width : 352 pixels\n      Height : 288 pixels\n      Display aspect ratio : 1.222\n      Frame rate : 25.000 fps\n      Resolution : 24 bits\n      Colorimetry : 4:2:0\n      Scan type : Progressive\n      Bits/(Pixel*Frame) : 0.303\n      Stream size : 2.31 GiB (79%)\n      Writing library : DivX 1586\n   Audio\n      Format : MPEG Audio\n      Format version : Version 1\n      Format profile : Layer 2\n      Codec ID : 50\n      Codec ID/Hint : MP1\n      Bit rate mode : Constant\n      Bit rate : 192 Kbps\n      Channel(s) : 2 channels\n      Sampling rate : 44.1 KHz\n      Resolution : 16 bits\n      Video delay : 17ms\n      Stream size : 591 MiB (20%)\n      Alignment : Split accross interleaves\n      Interleave, duration : 40 ms (1.00 video frame)\n      Interleave, preload duration : 500 ms &lt;a href=&quot;\nhttp://img571.imageshack.us/img571/4205/part3154238130717.jpg&quot; rel=&quot;nofollow&quot; target=&quot;_NEW&quot;&gt;\nhttp://img571.imageshack.us/img571/4205/part3154238130717.jpg&lt;/a&gt;\n\n\nUpload speed: 40-45 kb/s","torrent":{"xt":"urn:btih:166e7678e84de5771004698c5ef979c3747b9741","amp;dn":"2010+Le+Mans+24h+-+Eurosport+%26+Eurosport2+-+HUN","amp;tr":["udp%3A%2F%2Ftracker.openbittorrent.com%3A80","udp%3A%2F%2Fopen.demonii.com%3A1337","udp%3A%2F%2Ftracker.coppersurfer.tk%3A6969","udp%3A%2F%2Fexodus.desync.com%3A6969"],"infoHash":"166e7678e84de5771004698c5ef979c3747b9741","infoHashBuffer":{"type":"Buffer","data":[22,110,118,120,232,77,229,119,16,4,105,140,94,249,121,195,116,123,151,65]},"announce":[],"urlList":[]}}